<svg width="52" height="52" viewBox="0 0 52 52" fill="none" xmlns="http://www.w3.org/2000/svg">
<rect width="52" height="52" rx="26" fill="#FF6200"/>
<path d="M28.8981 21.8622C28.8241 21.0958 28.5062 20.5004 27.9444 20.076C27.3827 19.6516 26.6204 19.4394 25.6574 19.4394C25.0031 19.4394 24.4506 19.5344 24 19.7245C23.5494 19.9082 23.2037 20.1647 22.963 20.4941C22.7284 20.8234 22.6111 21.1971 22.6111 21.6152C22.5988 21.9636 22.6698 22.2676 22.8241 22.5273C22.9846 22.787 23.2037 23.0119 23.4815 23.2019C23.7593 23.3856 24.0802 23.5471 24.4444 23.6865C24.8086 23.8195 25.1975 23.9335 25.6111 24.0285L27.3148 24.4466C28.142 24.6366 28.9012 24.8899 29.5926 25.2067C30.284 25.5234 30.8827 25.9129 31.3889 26.3753C31.8951 26.8377 32.287 27.3824 32.5648 28.0095C32.8488 28.6366 32.9938 29.3555 33 30.1663C32.9938 31.3571 32.6975 32.3895 32.1111 33.2637C31.5309 34.1314 30.6914 34.806 29.5926 35.2874C28.5 35.7625 27.1821 36 25.6389 36C24.108 36 22.7747 35.7593 21.6389 35.2779C20.5093 34.7965 19.6265 34.0839 18.9907 33.1401C18.3611 32.19 18.0309 31.015 18 29.6152H21.8796C21.9228 30.2676 22.1049 30.8124 22.4259 31.2494C22.7531 31.6801 23.1883 32.0063 23.7315 32.228C24.2809 32.4434 24.9012 32.5511 25.5926 32.5511C26.2716 32.5511 26.8611 32.4497 27.3611 32.247C27.8673 32.0443 28.2593 31.7625 28.537 31.4014C28.8148 31.0404 28.9537 30.6255 28.9537 30.1568C28.9537 29.7197 28.8272 29.3523 28.5741 29.0546C28.3272 28.7569 27.963 28.5036 27.4815 28.2945C27.0062 28.0855 26.4228 27.8955 25.7315 27.7245L23.6667 27.1924C22.0679 26.7933 20.8056 26.1694 19.8796 25.3207C18.9537 24.4719 18.4938 23.3286 18.5 21.8907C18.4938 20.7126 18.7994 19.6833 19.4167 18.8029C20.0401 17.9224 20.8951 17.2352 21.9815 16.7411C23.0679 16.247 24.3025 16 25.6852 16C27.0926 16 28.321 16.247 29.3704 16.7411C30.4259 17.2352 31.2469 17.9224 31.8333 18.8029C32.4198 19.6833 32.7222 20.7031 32.7407 21.8622H28.8981Z" fill="white"/>
</svg>
