<svg width="70" height="25" viewBox="0 0 70 25" fill="none" xmlns="http://www.w3.org/2000/svg">
<path d="M0 24.5227V1.25H4.21591V20.9886H14.4659V24.5227H0Z" fill="#FF6200"/>
<path d="M17.9432 24.5227V7.06818H22.0568V24.5227H17.9432ZM20.0114 4.59091C19.3598 4.59091 18.7992 4.375 18.3295 3.94318C17.8598 3.50379 17.625 2.97727 17.625 2.36364C17.625 1.74242 17.8598 1.21591 18.3295 0.78409C18.7992 0.344697 19.3598 0.125 20.0114 0.125C20.6705 0.125 21.2311 0.344697 21.6932 0.78409C22.1629 1.21591 22.3977 1.74242 22.3977 2.36364C22.3977 2.97727 22.1629 3.50379 21.6932 3.94318C21.2311 4.375 20.6705 4.59091 20.0114 4.59091Z" fill="#FF6200"/>
<path d="M26.2869 24.5227V7.06818H30.2188V10.0341H30.4233C30.7869 9.03409 31.3892 8.25379 32.2301 7.69318C33.071 7.125 34.0748 6.84091 35.2415 6.84091C36.4233 6.84091 37.4195 7.12879 38.2301 7.70455C39.0483 8.27273 39.6241 9.04924 39.9574 10.0341H40.1392C40.5256 9.06439 41.1771 8.29167 42.0938 7.71591C43.018 7.13258 44.1127 6.84091 45.3778 6.84091C46.9839 6.84091 48.2945 7.34849 49.3097 8.36364C50.3248 9.37879 50.8324 10.8598 50.8324 12.8068V24.5227H46.7074V13.4432C46.7074 12.3598 46.4195 11.5682 45.8438 11.0682C45.268 10.5606 44.5634 10.3068 43.7301 10.3068C42.7377 10.3068 41.9612 10.6174 41.4006 11.2386C40.8475 11.8523 40.571 12.6515 40.571 13.6364V24.5227H36.5369V13.2727C36.5369 12.3712 36.2642 11.6515 35.7188 11.1136C35.1809 10.5758 34.4763 10.3068 33.6051 10.3068C33.0142 10.3068 32.4763 10.4583 31.9915 10.7614C31.5066 11.0568 31.1203 11.4773 30.8324 12.0227C30.5445 12.5606 30.4006 13.1894 30.4006 13.9091V24.5227H26.2869Z" fill="#FF6200"/>
<path d="M60.0284 24.875C58.9223 24.875 57.9261 24.678 57.0398 24.2841C56.161 23.8826 55.464 23.2917 54.9489 22.5114C54.4413 21.7311 54.1875 20.7689 54.1875 19.625C54.1875 18.6402 54.3693 17.8258 54.733 17.1818C55.0966 16.5379 55.5928 16.0227 56.2216 15.6364C56.8504 15.25 57.5587 14.9583 58.3466 14.7614C59.142 14.5568 59.964 14.4091 60.8125 14.3182C61.8352 14.2121 62.6648 14.1174 63.3011 14.0341C63.9375 13.9432 64.3996 13.8068 64.6875 13.625C64.983 13.4356 65.1307 13.1439 65.1307 12.75V12.6818C65.1307 11.8258 64.8769 11.1629 64.3693 10.6932C63.8617 10.2235 63.1307 9.98864 62.1761 9.98864C61.1686 9.98864 60.3693 10.2083 59.7784 10.6477C59.1951 11.0871 58.8011 11.6061 58.5966 12.2045L54.7557 11.6591C55.0587 10.5985 55.5587 9.71212 56.2557 9C56.9527 8.2803 57.8049 7.74242 58.8125 7.38636C59.8201 7.02273 60.9337 6.84091 62.1534 6.84091C62.9943 6.84091 63.8314 6.93939 64.6648 7.13636C65.4981 7.33333 66.2595 7.65909 66.9489 8.11364C67.6383 8.56061 68.1913 9.17045 68.608 9.94318C69.0322 10.7159 69.2443 11.6818 69.2443 12.8409V24.5227H65.2898V22.125H65.1534C64.9034 22.6098 64.5511 23.0644 64.0966 23.4886C63.6496 23.9053 63.0852 24.2424 62.4034 24.5C61.7292 24.75 60.9375 24.875 60.0284 24.875ZM61.0966 21.8523C61.9223 21.8523 62.6383 21.6894 63.2443 21.3636C63.8504 21.0303 64.3163 20.5909 64.642 20.0455C64.9754 19.5 65.142 18.9053 65.142 18.2614V16.2045C65.0133 16.3106 64.7936 16.4091 64.483 16.5C64.1799 16.5909 63.839 16.6705 63.4602 16.7386C63.0814 16.8068 62.7064 16.8674 62.3352 16.9205C61.964 16.9735 61.642 17.0189 61.3693 17.0568C60.7557 17.1402 60.2064 17.2765 59.7216 17.4659C59.2367 17.6553 58.8542 17.9205 58.5739 18.2614C58.2936 18.5947 58.1534 19.0265 58.1534 19.5568C58.1534 20.3144 58.4299 20.8864 58.983 21.2727C59.536 21.6591 60.2405 21.8523 61.0966 21.8523Z" fill="#FF6200"/>
</svg>
