<svg width="220" height="11" viewBox="0 0 220 11" fill="none" xmlns="http://www.w3.org/2000/svg">
<path d="M22 10.821V0.639226H23.233V9.72729H27.9659V10.821H22Z" fill="white"/>
<path d="M29.7159 10.821V3.18468H30.8892V10.821H29.7159ZM30.3125 1.91195C30.0838 1.91195 29.8866 1.83407 29.7209 1.67829C29.5585 1.52251 29.4773 1.33525 29.4773 1.1165C29.4773 0.89775 29.5585 0.710486 29.7209 0.554709C29.8866 0.398933 30.0838 0.321045 30.3125 0.321045C30.5412 0.321045 30.7367 0.398933 30.8991 0.554709C31.0649 0.710486 31.1477 0.89775 31.1477 1.1165C31.1477 1.33525 31.0649 1.52251 30.8991 1.67829C30.7367 1.83407 30.5412 1.91195 30.3125 1.91195Z" fill="white"/>
<path d="M33.0382 10.821V3.18468H34.1717V4.37786H34.2711C34.4302 3.97019 34.6871 3.65367 35.0417 3.42829C35.3964 3.1996 35.8223 3.08525 36.3194 3.08525C36.8232 3.08525 37.2425 3.1996 37.5772 3.42829C37.9153 3.65367 38.1788 3.97019 38.3677 4.37786H38.4473C38.6428 3.98345 38.9361 3.67024 39.3272 3.43823C39.7183 3.20291 40.1873 3.08525 40.7342 3.08525C41.417 3.08525 41.9754 3.29903 42.4096 3.72658C42.8438 4.15083 43.0609 4.81205 43.0609 5.71025V10.821H41.8876V5.71025C41.8876 5.1468 41.7335 4.7441 41.4252 4.50215C41.117 4.2602 40.7541 4.13923 40.3365 4.13923C39.7995 4.13923 39.3836 4.30163 39.0886 4.62644C38.7936 4.94794 38.6461 5.35561 38.6461 5.84945V10.821H37.4529V5.59093C37.4529 5.15675 37.3121 4.80708 37.0304 4.54193C36.7486 4.27346 36.3857 4.13923 35.9416 4.13923C35.6367 4.13923 35.3516 4.22043 35.0865 4.38283C34.8246 4.54524 34.6125 4.77062 34.4501 5.05897C34.291 5.34401 34.2115 5.67379 34.2115 6.04832V10.821H33.0382Z" fill="white"/>
<path d="M47.4533 11C46.9694 11 46.5302 10.9089 46.1358 10.7266C45.7414 10.541 45.4282 10.2742 45.1962 9.92616C44.9642 9.57483 44.8482 9.15059 44.8482 8.65343C44.8482 8.21593 44.9344 7.86129 45.1067 7.58951C45.2791 7.31442 45.5094 7.09898 45.7978 6.9432C46.0861 6.78743 46.4043 6.67142 46.7523 6.59519C47.1036 6.51565 47.4566 6.45267 47.8113 6.40627C48.2753 6.34661 48.6515 6.30187 48.9398 6.27204C49.2315 6.2389 49.4436 6.18421 49.5762 6.10798C49.7121 6.03175 49.78 5.89917 49.78 5.71025V5.67048C49.78 5.17995 49.6458 4.79879 49.3773 4.52701C49.1122 4.25523 48.7095 4.11934 48.1692 4.11934C47.6091 4.11934 47.1699 4.24197 46.8517 4.48724C46.5336 4.7325 46.3098 4.99434 46.1806 5.27275L45.0669 4.87502C45.2658 4.41101 45.531 4.04974 45.8624 3.79122C46.1971 3.52938 46.5617 3.34709 46.9561 3.24434C47.3539 3.13828 47.745 3.08525 48.1294 3.08525C48.3747 3.08525 48.6564 3.11508 48.9746 3.17474C49.2961 3.23108 49.606 3.34874 49.9043 3.52772C50.2059 3.7067 50.4561 3.97682 50.655 4.33809C50.8539 4.69936 50.9533 5.18326 50.9533 5.78979V10.821H49.78V9.78695H49.7203C49.6408 9.95267 49.5082 10.13 49.3226 10.3189C49.137 10.5078 48.8901 10.6686 48.5819 10.8012C48.2736 10.9337 47.8974 11 47.4533 11ZM47.6323 9.94604C48.0963 9.94604 48.4874 9.8549 48.8056 9.67261C49.1271 9.49032 49.369 9.25499 49.5314 8.96664C49.6971 8.67829 49.78 8.37502 49.78 8.05684V6.98298C49.7303 7.04264 49.6209 7.09732 49.4519 7.14704C49.2862 7.19344 49.0939 7.23487 48.8752 7.27133C48.6597 7.30447 48.4493 7.3343 48.2438 7.36082C48.0416 7.38402 47.8775 7.4039 47.7516 7.42048C47.4467 7.46025 47.1616 7.52488 46.8965 7.61437C46.6346 7.70054 46.4225 7.83146 46.2601 8.00712C46.101 8.17947 46.0215 8.41479 46.0215 8.71309C46.0215 9.12076 46.1723 9.429 46.4739 9.63781C46.7788 9.8433 47.165 9.94604 47.6323 9.94604Z" fill="white"/>
<path d="M62.7596 3.18468C62.6999 2.68089 62.458 2.28979 62.0337 2.01139C61.6095 1.73298 61.0891 1.59377 60.4727 1.59377C60.0219 1.59377 59.6275 1.66669 59.2894 1.81252C58.9547 1.95836 58.6928 2.15888 58.5039 2.41408C58.3183 2.66929 58.2255 2.9593 58.2255 3.28411C58.2255 3.55589 58.2901 3.78956 58.4194 3.98511C58.552 4.17734 58.721 4.33809 58.9265 4.46735C59.132 4.5933 59.3474 4.6977 59.5728 4.78056C59.7982 4.86011 60.0053 4.92474 60.1942 4.97445L61.2283 5.25286C61.4935 5.32247 61.7885 5.41858 62.1133 5.54122C62.4414 5.66385 62.7546 5.83122 63.0529 6.04335C63.3545 6.25215 63.6031 6.52062 63.7987 6.84874C63.9942 7.17687 64.092 7.57957 64.092 8.05684C64.092 8.60703 63.9478 9.10419 63.6594 9.54832C63.3744 9.99245 62.9568 10.3454 62.4066 10.6073C61.8597 10.8691 61.1952 11 60.413 11C59.6838 11 59.0524 10.8824 58.5188 10.647C57.9885 10.4117 57.5709 10.0836 57.266 9.66266C56.9644 9.24174 56.7937 8.75286 56.7539 8.19604H58.0266C58.0598 8.58051 58.189 8.8987 58.4144 9.15059C58.6431 9.39917 58.9315 9.58478 59.2795 9.70741C59.6308 9.82673 60.0086 9.88639 60.413 9.88639C60.8836 9.88639 61.3062 9.81016 61.6808 9.65769C62.0553 9.50192 62.3519 9.28648 62.5707 9.01139C62.7894 8.73298 62.8988 8.40817 62.8988 8.03695C62.8988 7.69889 62.8043 7.42379 62.6154 7.21167C62.4265 6.99955 62.1779 6.8272 61.8697 6.69462C61.5614 6.56205 61.2283 6.44604 60.8704 6.34661L59.6175 5.98866C58.8221 5.75997 58.1924 5.4335 57.7283 5.00925C57.2643 4.58501 57.0323 4.02985 57.0323 3.34377C57.0323 2.7737 57.1864 2.27654 57.4947 1.85229C57.8062 1.42474 58.2238 1.0933 58.7475 0.857976C59.2745 0.61934 59.8628 0.500022 60.5124 0.500022C61.1687 0.500022 61.752 0.617683 62.2624 0.853005C62.7728 1.08501 63.1772 1.40319 63.4755 1.80755C63.7771 2.21191 63.9362 2.67095 63.9528 3.18468H62.7596Z" fill="white"/>
<path d="M69.2811 3.18468V4.179H65.3237V3.18468H69.2811ZM66.4771 1.35514H67.6504V8.63354C67.6504 8.96498 67.6984 9.21356 67.7946 9.37928C67.894 9.54169 68.0199 9.65106 68.1724 9.70741C68.3282 9.76044 68.4922 9.78695 68.6646 9.78695C68.7939 9.78695 68.8999 9.78033 68.9828 9.76707C69.0656 9.7505 69.1319 9.73724 69.1816 9.72729L69.4203 10.7813C69.3407 10.8111 69.2297 10.8409 69.0872 10.8708C68.9447 10.9039 68.764 10.9205 68.5453 10.9205C68.2138 10.9205 67.889 10.8492 67.5708 10.7067C67.256 10.5642 66.9941 10.3471 66.7853 10.0554C66.5798 9.76375 66.4771 9.39586 66.4771 8.95173V1.35514Z" fill="white"/>
<path d="M73.2931 11C72.8092 11 72.3701 10.9089 71.9757 10.7266C71.5813 10.541 71.2681 10.2742 71.036 9.92616C70.804 9.57483 70.688 9.15059 70.688 8.65343C70.688 8.21593 70.7742 7.86129 70.9466 7.58951C71.1189 7.31442 71.3493 7.09898 71.6376 6.9432C71.926 6.78743 72.2441 6.67142 72.5922 6.59519C72.9435 6.51565 73.2965 6.45267 73.6511 6.40627C74.1151 6.34661 74.4913 6.30187 74.7797 6.27204C75.0713 6.2389 75.2834 6.18421 75.416 6.10798C75.5519 6.03175 75.6199 5.89917 75.6199 5.71025V5.67048C75.6199 5.17995 75.4856 4.79879 75.2172 4.52701C74.952 4.25523 74.5493 4.11934 74.0091 4.11934C73.4489 4.11934 73.0098 4.24197 72.6916 4.48724C72.3734 4.7325 72.1497 4.99434 72.0204 5.27275L70.9068 4.87502C71.1056 4.41101 71.3708 4.04974 71.7022 3.79122C72.037 3.52938 72.4016 3.34709 72.796 3.24434C73.1937 3.13828 73.5848 3.08525 73.9693 3.08525C74.2145 3.08525 74.4963 3.11508 74.8145 3.17474C75.1359 3.23108 75.4458 3.34874 75.7441 3.52772C76.0458 3.7067 76.296 3.97682 76.4949 4.33809C76.6937 4.69936 76.7931 5.18326 76.7931 5.78979V10.821H75.6199V9.78695H75.5602C75.4806 9.95267 75.3481 10.13 75.1625 10.3189C74.9769 10.5078 74.7299 10.6686 74.4217 10.8012C74.1135 10.9337 73.7373 11 73.2931 11ZM73.4721 9.94604C73.9361 9.94604 74.3272 9.8549 74.6454 9.67261C74.9669 9.49032 75.2089 9.25499 75.3713 8.96664C75.537 8.67829 75.6199 8.37502 75.6199 8.05684V6.98298C75.5701 7.04264 75.4608 7.09732 75.2917 7.14704C75.126 7.19344 74.9338 7.23487 74.715 7.27133C74.4996 7.30447 74.2891 7.3343 74.0836 7.36082C73.8815 7.38402 73.7174 7.4039 73.5914 7.42048C73.2865 7.46025 73.0015 7.52488 72.7363 7.61437C72.4745 7.70054 72.2624 7.83146 72.1 8.00712C71.9409 8.17947 71.8613 8.41479 71.8613 8.71309C71.8613 9.12076 72.0121 9.429 72.3137 9.63781C72.6187 9.8433 73.0048 9.94604 73.4721 9.94604Z" fill="white"/>
<path d="M82.2557 3.18468V4.179H78.2983V3.18468H82.2557ZM79.4517 1.35514H80.625V8.63354C80.625 8.96498 80.6731 9.21356 80.7692 9.37928C80.8686 9.54169 80.9946 9.65106 81.147 9.70741C81.3028 9.76044 81.4669 9.78695 81.6392 9.78695C81.7685 9.78695 81.8745 9.78033 81.9574 9.76707C82.0402 9.7505 82.1065 9.73724 82.1562 9.72729L82.3949 10.7813C82.3153 10.8111 82.2043 10.8409 82.0618 10.8708C81.9193 10.9039 81.7386 10.9205 81.5199 10.9205C81.1884 10.9205 80.8636 10.8492 80.5455 10.7067C80.2306 10.5642 79.9688 10.3471 79.7599 10.0554C79.5545 9.76375 79.4517 9.39586 79.4517 8.95173V1.35514Z" fill="white"/>
<path d="M87.1403 10.9801C86.4045 10.9801 85.7698 10.8177 85.2361 10.4929C84.7058 10.1648 84.2965 9.70741 84.0082 9.12076C83.7231 8.5308 83.5806 7.84472 83.5806 7.06252C83.5806 6.28033 83.7231 5.59093 84.0082 4.99434C84.2965 4.39444 84.6976 3.92711 85.2113 3.59235C85.7283 3.25428 86.3316 3.08525 87.021 3.08525C87.4187 3.08525 87.8114 3.15154 88.1992 3.28411C88.587 3.41669 88.94 3.63212 89.2582 3.93042C89.5764 4.2254 89.8299 4.6165 90.0188 5.10372C90.2077 5.59093 90.3022 6.19084 90.3022 6.90343V7.40059H84.4158V6.38639H89.109C89.109 5.95551 89.0228 5.57104 88.8505 5.23298C88.6815 4.89491 88.4395 4.6281 88.1246 4.43255C87.8131 4.237 87.4452 4.13923 87.021 4.13923C86.5536 4.13923 86.1493 4.25523 85.8079 4.48724C85.4698 4.71593 85.2096 5.01423 85.0273 5.38212C84.8451 5.75002 84.7539 6.14443 84.7539 6.56536V7.2415C84.7539 7.8182 84.8533 8.30708 85.0522 8.70812C85.2544 9.10585 85.5344 9.40911 85.8924 9.61792C86.2504 9.82341 86.6663 9.92616 87.1403 9.92616C87.4485 9.92616 87.7269 9.88307 87.9755 9.7969C88.2274 9.70741 88.4445 9.57483 88.6268 9.39917C88.8091 9.22019 88.9499 8.99813 89.0494 8.73298L90.1829 9.05116C90.0636 9.43563 89.863 9.7737 89.5813 10.0654C89.2996 10.3537 88.9516 10.5791 88.5373 10.7415C88.123 10.9006 87.6573 10.9801 87.1403 10.9801Z" fill="white"/>
<path d="M97.4961 4.89491L96.4421 5.1932C96.3758 5.01754 96.2781 4.84685 96.1488 4.68113C96.0228 4.5121 95.8505 4.37289 95.6317 4.26352C95.413 4.15414 95.1329 4.09945 94.7915 4.09945C94.3242 4.09945 93.9348 4.20717 93.6232 4.42261C93.315 4.63473 93.1609 4.90485 93.1609 5.23298C93.1609 5.52464 93.2669 5.75499 93.479 5.92403C93.6912 6.09306 94.0226 6.23392 94.4734 6.34661L95.6069 6.62502C96.2897 6.79074 96.7984 7.04429 97.1332 7.38568C97.4679 7.72374 97.6353 8.15959 97.6353 8.6932C97.6353 9.1307 97.5093 9.5218 97.2575 9.8665C97.0089 10.2112 96.6609 10.483 96.2134 10.6818C95.766 10.8807 95.2456 10.9801 94.6523 10.9801C93.8735 10.9801 93.2288 10.8111 92.7184 10.473C92.208 10.135 91.8848 9.64112 91.7489 8.9915L92.8626 8.71309C92.9686 9.12407 93.1692 9.43231 93.4641 9.63781C93.7624 9.8433 94.1519 9.94604 94.6325 9.94604C95.1793 9.94604 95.6135 9.83004 95.935 9.59803C96.2598 9.36271 96.4222 9.08099 96.4222 8.75286C96.4222 8.48771 96.3294 8.26565 96.1438 8.08667C95.9582 7.90438 95.6732 7.76849 95.2887 7.679L94.016 7.3807C93.3166 7.21498 92.8029 6.95812 92.4748 6.61011C92.15 6.25878 91.9876 5.81962 91.9876 5.29264C91.9876 4.86176 92.1085 4.48061 92.3505 4.14917C92.5958 3.81773 92.9289 3.55755 93.3498 3.36863C93.774 3.17971 94.2546 3.08525 94.7915 3.08525C95.5472 3.08525 96.1405 3.25097 96.5714 3.58241C97.0056 3.91385 97.3138 4.35135 97.4961 4.89491Z" fill="white"/>
</svg>
