<svg width="70" height="25" viewBox="0 0 70 25" fill="none" xmlns="http://www.w3.org/2000/svg">
<path d="M0 24.3977V1.125H4.21591V20.8636H14.4659V24.3977H0Z" fill="#FF6200"/>
<path d="M17.9432 24.3977V6.94318H22.0568V24.3977H17.9432ZM20.0114 4.46591C19.3598 4.46591 18.7992 4.25 18.3295 3.81818C17.8598 3.37879 17.625 2.85227 17.625 2.23864C17.625 1.61742 17.8598 1.09091 18.3295 0.65909C18.7992 0.219697 19.3598 0 20.0114 0C20.6705 0 21.2311 0.219697 21.6932 0.65909C22.1629 1.09091 22.3977 1.61742 22.3977 2.23864C22.3977 2.85227 22.1629 3.37879 21.6932 3.81818C21.2311 4.25 20.6705 4.46591 20.0114 4.46591Z" fill="#FF6200"/>
<path d="M26.2869 24.3977V6.94318H30.2188V9.90909H30.4233C30.7869 8.90909 31.3892 8.12879 32.2301 7.56818C33.071 7 34.0748 6.71591 35.2415 6.71591C36.4233 6.71591 37.4195 7.00379 38.2301 7.57955C39.0483 8.14773 39.6241 8.92424 39.9574 9.90909H40.1392C40.5256 8.93939 41.1771 8.16667 42.0938 7.59091C43.018 7.00758 44.1127 6.71591 45.3778 6.71591C46.9839 6.71591 48.2945 7.22349 49.3097 8.23864C50.3248 9.25379 50.8324 10.7348 50.8324 12.6818V24.3977H46.7074V13.3182C46.7074 12.2348 46.4195 11.4432 45.8438 10.9432C45.268 10.4356 44.5634 10.1818 43.7301 10.1818C42.7377 10.1818 41.9612 10.4924 41.4006 11.1136C40.8475 11.7273 40.571 12.5265 40.571 13.5114V24.3977H36.5369V13.1477C36.5369 12.2462 36.2642 11.5265 35.7188 10.9886C35.1809 10.4508 34.4763 10.1818 33.6051 10.1818C33.0142 10.1818 32.4763 10.3333 31.9915 10.6364C31.5066 10.9318 31.1203 11.3523 30.8324 11.8977C30.5445 12.4356 30.4006 13.0644 30.4006 13.7841V24.3977H26.2869Z" fill="#FF6200"/>
<path d="M60.0284 24.75C58.9223 24.75 57.9261 24.553 57.0398 24.1591C56.161 23.7576 55.464 23.1667 54.9489 22.3864C54.4413 21.6061 54.1875 20.6439 54.1875 19.5C54.1875 18.5152 54.3693 17.7008 54.733 17.0568C55.0966 16.4129 55.5928 15.8977 56.2216 15.5114C56.8504 15.125 57.5587 14.8333 58.3466 14.6364C59.142 14.4318 59.964 14.2841 60.8125 14.1932C61.8352 14.0871 62.6648 13.9924 63.3011 13.9091C63.9375 13.8182 64.3996 13.6818 64.6875 13.5C64.983 13.3106 65.1307 13.0189 65.1307 12.625V12.5568C65.1307 11.7008 64.8769 11.0379 64.3693 10.5682C63.8617 10.0985 63.1307 9.86364 62.1761 9.86364C61.1686 9.86364 60.3693 10.0833 59.7784 10.5227C59.1951 10.9621 58.8011 11.4811 58.5966 12.0795L54.7557 11.5341C55.0587 10.4735 55.5587 9.58712 56.2557 8.875C56.9527 8.1553 57.8049 7.61742 58.8125 7.26136C59.8201 6.89773 60.9337 6.71591 62.1534 6.71591C62.9943 6.71591 63.8314 6.81439 64.6648 7.01136C65.4981 7.20833 66.2595 7.53409 66.9489 7.98864C67.6383 8.43561 68.1913 9.04545 68.608 9.81818C69.0322 10.5909 69.2443 11.5568 69.2443 12.7159V24.3977H65.2898V22H65.1534C64.9034 22.4848 64.5511 22.9394 64.0966 23.3636C63.6496 23.7803 63.0852 24.1174 62.4034 24.375C61.7292 24.625 60.9375 24.75 60.0284 24.75ZM61.0966 21.7273C61.9223 21.7273 62.6383 21.5644 63.2443 21.2386C63.8504 20.9053 64.3163 20.4659 64.642 19.9205C64.9754 19.375 65.142 18.7803 65.142 18.1364V16.0795C65.0133 16.1856 64.7936 16.2841 64.483 16.375C64.1799 16.4659 63.839 16.5455 63.4602 16.6136C63.0814 16.6818 62.7064 16.7424 62.3352 16.7955C61.964 16.8485 61.642 16.8939 61.3693 16.9318C60.7557 17.0152 60.2064 17.1515 59.7216 17.3409C59.2367 17.5303 58.8542 17.7955 58.5739 18.1364C58.2936 18.4697 58.1534 18.9015 58.1534 19.4318C58.1534 20.1894 58.4299 20.7614 58.983 21.1477C59.536 21.5341 60.2405 21.7273 61.0966 21.7273Z" fill="#FF6200"/>
</svg>
